{"title":"Little.Fockers.2010.720p.BRRip.x264.Feel-Free","uid":6269530,"size":2515094582,"categoryP":"video","categoryS":"hd___movies","magnet":"?xt=urn:btih:536ae31575ead3edd242f53ea87917a8314ab827&amp;dn=Little.Fockers.2010.720p.BRRip.x264.Feel-Free&amp;tr=udp%3A%2F%2Ftracker.openbittorrent.com%3A80&amp;tr=udp%3A%2F%2Fopen.demonii.com%3A1337&amp;tr=udp%3A%2F%2Ftracker.coppersurfer.tk%3A6969&amp;tr=udp%3A%2F%2Fexodus.desync.com%3A6969","seeders":0,"leechers":0,"uploader":".BONE.","files":10,"time":1301028734,"description":"Genre:Comedy\nLanguage:English\n &lt;a href=&quot;\nhttp://www.imdb.com/title/tt0970866/&quot; rel=&quot;nofollow&quot; target=&quot;_NEW&quot;&gt;\nhttp://www.imdb.com/title/tt0970866/&lt;/a&gt;\n\nSource:1080p.BluRay.x264-TWiZTED\nSubtitles:Romana\n\nFormat : MPEG-4\nFormat profile : Base Media\nCodec ID : isom\nFile size : 2.34 GiB\nDuration : 1h 37mn\nOverall bit rate : 3 424 Kbps\n\nVideo\nFormat profile : &lt;a class=&quot;__cf_email__&quot; href=&quot;/cdn-cgi/l/email-protection&quot; data-cfemail=&quot;db93b2bcb39b97eff5ea&quot;&gt;[email&amp;#160;protected]&lt;/a&gt;&lt;script cf-hash='f9e31' type=&quot;text/javascript&quot;&gt;\n/* &lt;![CDATA[ */!function(){try{var t=&quot;currentScript&quot;in document?document.currentScript:function(){for(var t=document.getElementsByTagName(&quot;script&quot;),e=t.length;e--;)if(t[e].getAttribute(&quot;cf-hash&quot;))return t[e]}();if(t&amp;&amp;t.previousSibling){var e,r,n,i,c=t.previousSibling,a=c.getAttribute(&quot;data-cfemail&quot;);if(a){for(e=&quot;&quot;,r=parseInt(a.substr(0,2),16),n=2;a.length-n;n+=2)i=parseInt(a.substr(n,2),16)^r,e+=String.fromCharCode(i);e=document.createTextNode(e),c.parentNode.replaceChild(e,c)}}}catch(u){}}();/* ]]&gt; */&lt;/script&gt;\nFormat settings, CABAC : Yes\nFormat settings, ReFrames : 3 frames\nCodec ID : avc1\nCodec ID/Info : Advanced Video Coding\nDuration : 1h 37mn\nBit rate mode : Variable\nBit rate : 3 000 Kbps\nMaximum bit rate : 14.3 Mbps\nWidth : 1 280 pixels\nHeight : 720 pixels\nDisplay aspect ratio : 16:9\nFrame rate mode : Constant\nFrame rate : 23.976 fps\nColor space : YUV\nChroma subsampling : 4:2:0\nBit depth : 8 bits\nScan type : Progressive\nBits/(Pixel*Frame) : 0.136\nStream size : 2.04 GiB (87%)\nWriting library : x264\n\nAudio\nID : 2\nFormat : AAC\nFormat/Info : Advanced Audio Codec\nFormat version : Version 4\nFormat profile : LC\nFormat settings, SBR : No\nCodec ID : 40\nDuration : 1h 37mn\nBit rate mode : Variable\nBit rate : 434 Kbps\nMaximum bit rate : 543 Kbps\nChannel(s) : 6 channels\nChannel positions : Front: L C R, Side: L R, LFE\nSampling rate : 48.0 KHz\nStream size : 303 MiB (13%)\n\n\nPlot:\nFamily-patriarch Jack Byrnes wants to appoint a successor. Does his son-in-law, the &quot;male nurse&quot;, Greg Focker have what it takes?\n &lt;a href=&quot;\nhttp://www.pix2links.com/images/84156684755502272705.png&quot; rel=&quot;nofollow&quot; target=&quot;_NEW&quot;&gt;\nhttp://www.pix2links.com/images/84156684755502272705.png&lt;/a&gt;\n &lt;a href=&quot;\nhttp://www.pix2links.com/images/12535047063614657280.png&quot; rel=&quot;nofollow&quot; target=&quot;_NEW&quot;&gt;\nhttp://www.pix2links.com/images/12535047063614657280.png&lt;/a&gt;\n &lt;a href=&quot;\nhttp://www.pix2links.com/images/68044891384632511740.png&quot; rel=&quot;nofollow&quot; target=&quot;_NEW&quot;&gt;\nhttp://www.pix2links.com/images/68044891384632511740.png&lt;/a&gt;\n &lt;a href=&quot;\nhttp://www.pix2links.com/images/84935430511877067214.png&quot; rel=&quot;nofollow&quot; target=&quot;_NEW&quot;&gt;\nhttp://www.pix2links.com/images/84935430511877067214.png&lt;/a&gt;\n &lt;a href=&quot;\nhttp://www.pix2links.com/images/25710567425264986966.png&quot; rel=&quot;nofollow&quot; target=&quot;_NEW&quot;&gt;\nhttp://www.pix2links.com/images/25710567425264986966.png&lt;/a&gt;","torrent":{"xt":"urn:btih:536ae31575ead3edd242f53ea87917a8314ab827","amp;dn":"Little.Fockers.2010.720p.BRRip.x264.Feel-Free","amp;tr":["udp%3A%2F%2Ftracker.openbittorrent.com%3A80","udp%3A%2F%2Fopen.demonii.com%3A1337","udp%3A%2F%2Ftracker.coppersurfer.tk%3A6969","udp%3A%2F%2Fexodus.desync.com%3A6969"],"infoHash":"536ae31575ead3edd242f53ea87917a8314ab827","infoHashBuffer":{"type":"Buffer","data":[83,106,227,21,117,234,211,237,210,66,245,62,168,121,23,168,49,74,184,39]},"announce":[],"urlList":[]}}